<svg width="32" height="32" viewBox="0 0 32 32" fill="none" xmlns="http://www.w3.org/2000/svg">
<path fill-rule="evenodd" clip-rule="evenodd" d="M15.4809 15.1012C15.977 14.8148 16.6121 14.985 16.8985 15.481C17.1849 15.9771 17.0148 16.6122 16.5187 16.8986C16.0226 17.185 15.3875 17.0149 15.1011 16.5188C14.8147 16.0227 14.9849 15.3876 15.4809 15.1012ZM17.7271 18.9917L10.0162 19.4545L14.2725 13.0081L21.9834 12.5453L17.7271 18.9917ZM23.1526 11.2268L13.8875 11.7829C13.6906 11.7947 13.5126 11.8975 13.404 12.0621L8.28983 19.8078C8.16032 20.0048 8.15321 20.2582 8.27099 20.4622C8.38878 20.6662 8.61174 20.7867 8.8471 20.773L18.1122 20.2169C18.2103 20.2105 18.3039 20.1817 18.3866 20.1339C18.4693 20.0862 18.5411 20.0196 18.5957 19.9378L23.7098 12.192C23.8394 11.995 23.8465 11.7416 23.7287 11.5376C23.6109 11.3336 23.3879 11.2131 23.1526 11.2268ZM20.8772 24.4477C16.2183 27.1375 10.2413 25.5353 7.55203 20.8773C4.86274 16.2193 6.46361 10.2419 11.1225 7.55203C15.7813 4.86222 21.7584 6.46451 24.4476 11.1225C27.1369 15.7805 25.5361 21.7579 20.8772 24.4477ZM10.4998 6.47358C5.24693 9.50637 3.4408 16.247 6.47358 21.4999C9.50637 26.7528 16.2469 28.559 21.4998 25.5262C26.7527 22.4934 28.5589 15.7528 25.5261 10.4999C22.4933 5.24693 15.7527 3.4408 10.4998 6.47358Z" fill="white"/>
</svg>
